<svg width="10" height="17" viewBox="0 0 10 17" fill="none" xmlns="http://www.w3.org/2000/svg">
<g clip-path="url(#clip0_1_145)">
<path fill-rule="evenodd" clip-rule="evenodd" d="M0.680771 0.383896C0.737928 0.326594 0.805828 0.281132 0.880583 0.250112C0.955337 0.219092 1.03548 0.203125 1.11641 0.203125C1.19735 0.203125 1.27749 0.219092 1.35224 0.250112C1.427 0.281132 1.4949 0.326594 1.55205 0.383896L8.9358 7.76764C8.9931 7.8248 9.03857 7.8927 9.06959 7.96746C9.10061 8.04221 9.11657 8.12235 9.11657 8.20329C9.11657 8.28422 9.10061 8.36436 9.06959 8.43911C9.03857 8.51387 8.9931 8.58177 8.9358 8.63893L1.55205 16.0227C1.43651 16.1382 1.27981 16.2031 1.11641 16.2031C0.953015 16.2031 0.79631 16.1382 0.680771 16.0227C0.565232 15.9071 0.500322 15.7504 0.500322 15.587C0.500322 15.4236 0.565232 15.2669 0.680771 15.1514L7.63011 8.20329L0.680771 1.25518C0.623469 1.19802 0.578006 1.13012 0.546986 1.05537C0.515967 0.980612 0.5 0.900472 0.5 0.819537C0.5 0.738603 0.515967 0.658463 0.546986 0.583708C0.578006 0.508954 0.623469 0.441053 0.680771 0.383896Z" fill="#6EC827"/>
</g>
<defs>
<clipPath id="clip0_1_145">
<rect width="9" height="16" fill="white" transform="translate(0.5 0.203125)"/>
</clipPath>
</defs>
</svg>
